<svg id="레이어_5" data-name="레이어 5" xmlns="http://www.w3.org/2000/svg" viewBox="0 0 207.75 297.93"><defs><style>.cls-1{fill:#ede6d6;}.cls-2{fill:#a4a4a4;}</style></defs><path class="cls-1" d="M264.81,33.41H85a7,7,0,0,0-7,7v270a7,7,0,0,0,7,7H264.81a7,7,0,0,0,7-7v-270A7,7,0,0,0,264.81,33.41Zm-11,262.74H95.68V54.45h158.1Z" transform="translate(-70.98 -25.93)"/><path class="cls-2" d="M264.77,32.93a7,7,0,0,1,7,7v270a7,7,0,0,1-7,7H84.94a7,7,0,0,1-7-7v-270a7,7,0,0,1,7-7H264.77m0-7H84.94a14,14,0,0,0-14,14v270a14,14,0,0,0,14,14H264.77a14,14,0,0,0,14-14v-270a14,14,0,0,0-14-14Z" transform="translate(-70.98 -25.93)"/></svg>