<svg id="레이어_1" data-name="레이어 1" xmlns="http://www.w3.org/2000/svg" viewBox="0 0 213.41 267.66"><defs><style>.cls-1{fill:none;stroke:#838383;stroke-width:12px;}.cls-1,.cls-2,.cls-4,.cls-5{stroke-miterlimit:10;}.cls-2{fill:#c4ced0;stroke:#868b8b;}.cls-3{fill:#fff;}.cls-4{fill:#a4a4af;stroke:#746978;}.cls-5{fill:#809fae;stroke:#5a767d;}</style></defs><path class="cls-1" d="M275.11,252.94,266.6,54.64c0-4.79-4-5.51-6.38-4.79L234.7,56.74c-7.38.79-11.79.64-14.49.22l-3.41-5.25a5,5,0,0,0-3.89-.52l-9.6,2.65a1.7,1.7,0,0,0-.54-1.08c-.44-6.51-5.59-4-6.34-3.87l-11.88,3.89c-3,.1-7.19.26-10.5.12l-.28-4.1a1.7,1.7,0,0,0-2-1.53l-35.9,5.81,0-2.56c0-.81-2.14-1.63-5.33-.67l-4.71,1.63c-8.81.91-15.13,1-18,.26l-.35-2.08a1.91,1.91,0,0,0-2.21-1.45L74.28,52.7c-.06,0-.09.07,0,.11l0,0c-.06,0-.12,0-.12.11V295.15a15.71,15.71,0,0,0,10.64,6.65c16,2.41,30.83-3.83,31.89-6.65v-.06l9.92-6.8v8.21c1.78,2.42,8.18,5.78,15.6,6.26,14.89.95,23.79-2.79,29.77-6.26v-.45l24.75-9.23c.26,2.76.51,5.5.77,8.27,1.06,3.83,5.32,7.67,13.82,7.67,13.6,0,17.45-1.43,29.77-7.67l23.07-13.34C271.6,276,277.23,274,275.11,252.94Z" transform="translate(-68.15 -41.25)"/><path class="cls-2" d="M74.06,52.67,105,48.18a1.89,1.89,0,0,1,2.21,1.45l4,23.18-31-12.32L74,52.78A.07.07,0,0,1,74.06,52.67Z" transform="translate(-68.15 -41.25)"/><path class="cls-3" d="M104.67,51a2.66,2.66,0,0,1,1.79.31c2.55,1.35,11.6,1.16,24.89-.55,5.37-.69-8.5,10.54-1.06,8.62,3.51,2.25-10.6,12.18-12.76,16.29-9.26,17.62-24,5.85-31-9.21-1.68-3.64-13.66-9.18-9.4-9.95C81.73,55.69,99.87,52,104.67,51Z" transform="translate(-68.15 -41.25)"/><path class="cls-2" d="M116.47,54.6V295.06l22.32-15.33L135.63,50.49c0-.81-2.15-1.63-5.34-.68Z" transform="translate(-68.15 -41.25)"/><path class="cls-2" d="M116.47,295.12c-1.07,2.82-15.86,9.06-31.9,6.65a15.65,15.65,0,0,1-10.63-6.65V52.94a.13.13,0,0,1,.21-.1,24.7,24.7,0,0,0,10.42,3.68c7.44,1,14.88,1,31.9-1.92Z" transform="translate(-68.15 -41.25)"/><path class="cls-4" d="M126,54.6l45.53-7.36a1.7,1.7,0,0,1,2,1.53l.86,12.54-48-.44Z" transform="translate(-68.15 -41.25)"/><path class="cls-3" d="M167.78,51.88a1.93,1.93,0,0,1,1.31.22c2.45,1.41,14.07.59,17.83.59,9,0,12.43-.26,13.84-.51A2,2,0,0,1,203.12,54c.07,4.5-5.23,13.61-7.09,16.92C186.23,88.37,141.67,83,134.27,68c-1.79-3.61-11.34-8.19,0-10.54C138.94,56.51,162.79,52.68,167.78,51.88Z" transform="translate(-68.15 -41.25)"/><path class="cls-4" d="M171.75,57.48V296l30.84-11.5V53.65c0-7.67-5.6-4.95-6.38-4.79l-23.39,7.66C172.34,56.65,171.75,57,171.75,57.48Z" transform="translate(-68.15 -41.25)"/><path class="cls-4" d="M171.75,296.46c-6,3.48-14.88,7.22-29.77,6.27-7.42-.48-13.82-3.84-15.6-6.27,0-80.52-.34-160.37-.35-240.9,0-.29-.28-1.09,0-1,3.64,1.76,4.91,2,9.57,2.88,10.64,1.91,28.24,1.83,36.15,0Z" transform="translate(-68.15 -41.25)"/><path class="cls-5" d="M176,61.31l36.68-10.16a5.1,5.1,0,0,1,3.89.53l12.27,18.88-52.6-4.33Z" transform="translate(-68.15 -41.25)"/><path class="cls-3" d="M215.79,55.53c1.51.84,6.41,4.35,37.83-1.88,0,0,10,.17,11.09.09,4.09,1.93-4.39,4-6.4,8.26-8.61,18.34-61.66,21.72-70.81,7.31-2.21-3.48-9.75-5.73-5.11-6.08C187.68,62.82,215.79,55.53,215.79,55.53Z" transform="translate(-68.15 -41.25)"/><path class="cls-5" d="M240.86,295.06c-12.32,6.24-16.17,7.67-29.77,7.67-8.5,0-12.75-3.84-13.82-7.67-7.51-80.13-14-153.58-21.48-233.67,0-.21.28-.31.43-.14,1.87,2.09,6.48,2.62,10.42,2.93,6.35.51,14.88,1.92,34-3.83C228.2,140.78,233.33,214.63,240.86,295.06Z" transform="translate(-68.15 -41.25)"/><path class="cls-5" d="M215.94,61.72l24.92,233.34,23.08-13.34C271.38,276,277,274,274.89,252.91L266.38,54.6c0-4.79-4-5.5-6.38-4.79Z" transform="translate(-68.15 -41.25)"/></svg>