<svg id="레이어_2" data-name="레이어 2" xmlns="http://www.w3.org/2000/svg" viewBox="0 0 25.75 23.18"><defs><style>.cls-1{fill-opacity:0;}.cls-2{fill:#8c8c8c;}.cls-3,.cls-4{fill:none;stroke-linecap:round;stroke-miterlimit:10;}.cls-3{stroke:#fff;stroke-width:2.4px;}.cls-4{stroke:#8c8c8c;stroke-width:1.4px;}</style></defs><rect class="cls-1" x="1.72" y="3.82" width="11.49" height="19.36"/><path class="cls-2" d="M24.64,17,23.48,14a.71.71,0,0,0-.27-.59c-.17-.14-.26-.26-.5-.21l-5,1.13q-.93.21-.93,1l0,10.47a.69.69,0,0,1-.59.85l-1.5.31a4,4,0,0,0-2.09,1A2.46,2.46,0,0,0,12,29.71a2.3,2.3,0,0,0,.75,1.77,2.77,2.77,0,0,0,1.93.68,3.63,3.63,0,0,0,1.12-.2,3.71,3.71,0,0,0,1.13-.65,3.37,3.37,0,0,0,.87-1.16,4.17,4.17,0,0,0,.34-1.75V19.78a.81.81,0,0,1,.1-.49.71.71,0,0,1,.43-.2l5-1.08c.15,0,2.8-1.82,2.89-1.93A18.26,18.26,0,0,1,24.64,17Z" transform="translate(-10.27 -8.98)"/><polyline class="cls-1" points="25.75 22.21 14.26 22.21 14.26 2.86 25.75 2.86"/><path class="cls-2" d="M23.68,18c5.32-1,5.78-1.93,5.68,0v6.8a.68.68,0,0,1-.58.85l-1.5.31a4,4,0,0,0-2.09,1,2.46,2.46,0,0,0-.68,1.77,2.26,2.26,0,0,0,.75,1.76,2.73,2.73,0,0,0,1.93.69A3.33,3.33,0,0,0,28.31,31a3.61,3.61,0,0,0,1.14-.64,3.47,3.47,0,0,0,.87-1.16,4.23,4.23,0,0,0,.34-1.75V13.22s0-.05,0-.07l-.09-.39c-.13-.54-.47-.84-.91-.79-2.12.22-7.13,1.26-6.94,1.21" transform="translate(-10.27 -8.98)"/><line class="cls-3" x1="23.89" y1="1.2" x2="1.2" y2="21.07"/><line class="cls-4" x1="22.23" y1="2.52" x2="0.99" y2="21.28"/></svg>