<svg id="레이어_3" data-name="레이어 3" xmlns="http://www.w3.org/2000/svg" viewBox="0 0 347.51 222.51"><defs><style>.cls-1,.cls-3,.cls-4{fill:#fff;}.cls-1{stroke:#a4a4a4;stroke-width:12px;}.cls-1,.cls-2,.cls-3,.cls-4,.cls-7{stroke-miterlimit:10;}.cls-2{fill:#a4a4af;}.cls-2,.cls-7{stroke:#757575;}.cls-3{stroke:#7a7973;}.cls-4{stroke:#000;}.cls-5{fill:#f8f8f8;}.cls-6{fill:#eee;opacity:0.61;}.cls-7{fill:#e4e4e4;}</style></defs><path class="cls-1" d="M341.79,182.69c-.07-.29-5.61.19-10.62.6,3.92-14.13,7-25.88,7.39-28.55.35-2.43-5.54-2.31-10.75-7.52-6.45-6.45-9.67-9.67-14-17.2-.22-.38-.48-.35-1,0-2.87.16-10.85,1.73-20.83,3.95,6.52-19.5,12.65-25.49,12.65-28.1,0-4.81-44.07,4.3-75.24,24.72-18.8,12.32-26.87,22.57-26.87,22.57s0-.15-.09-.42l.18-.45-.19.41c-.73-3.19-5.67-22.8-23-47.37-6.51-9.22-33.32-34.4-46.76-37.08-1.43-.29-8.35,9.88-16.33,22.52a28.07,28.07,0,0,0-5.71-.49c-3.22,0-57,74.17-57,74.17a114.66,114.66,0,0,1,12,2.38c-7.69,9.9-15.35,21.28-20.54,29.28-12.71,12-23.57,29.14-24.77,30.68C12.84,236.48,6,248,6.42,249.34c.31.95,18.13.72,39.77-1.08,25.8-2.15,36.56-1.72,64.49,1.08,21.5,2.14,24.73,1.07,30.1,2.14,3.63.73,2.05.59,5.38,3.23,2.86,2.27,18,6,34.39,3.22,8.46-1.43-.43-8,7.53-5.37,29,9.67,125.82,29.06,127.91,25.8C320.43,271.42,343.85,192.25,341.79,182.69Z" transform="translate(-0.4 -62.21)"/><path class="cls-2" d="M323.6,183.45c2.47.15,18.17-1.57,18.27-1.08,2.06,9.56-21.35,88.73-25.8,95.67-2.09,3.26-98.89-16.13-127.91-25.8-7.95-2.65.93,3.94-7.52,5.37-16.35,2.78-31.54-.95-34.4-3.22-3.32-2.64-1.74-2.5-5.37-3.22-5.38-1.08-8.6,0-30.1-2.15-27.93-2.8-38.7-3.23-64.49-1.08-21.65,1.8-39.46,2-39.77,1.08-.44-1.34,6.42-12.86,14-22.58,1.46-1.88,17.28-27,33.32-37.62,35.82-23.78,74.57,9,154.79-2.15C259.49,179.6,280.86,180.88,323.6,183.45Z" transform="translate(-0.4 -62.21)"/><path class="cls-3" d="M313.92,129.7c4.3,7.53,7.53,10.75,14,17.2,5.21,5.21,11.09,5.09,10.75,7.52-1.08,7.53-23.65,87.07-25.8,89.22,0,0-18.27-20.42-26.87-25.8-2-1.24-.75-3.46-2.15-6.45-13.68-29.2,9.68-68.85,24.72-78.46C312.55,130.37,313.37,128.73,313.92,129.7Z" transform="translate(-0.4 -62.21)"/><path class="cls-3" d="M159.14,245.79c1.07,1.08,17.29,6.12,21.5,7.53,3.22,1.07,3.08-2.22,4.3-3.23,22.42-18.63,112.82-6.45,127.91-6.45,2.15,0-7.82-13.5-9.67-16.12-17.42-24.63-59.61-20.19-66.65-19.35C195.05,213.1,152.27,238.92,159.14,245.79Z" transform="translate(-0.4 -62.21)"/><path class="cls-3" d="M53.8,197.42c-5.89,4.2-14.23,14.34-29,35.47-7.53,10.75-8.09,11.26-6.45,10.75,17.2-5.37,52.67-12.9,109.64-2.15a112.64,112.64,0,0,1,20.42,6.45c2.15,1.08,10.75-2.15,10.75-2.15C159,222.41,86.45,174.17,53.8,197.42Z" transform="translate(-0.4 -62.21)"/><path class="cls-3" d="M81.75,149.05c-16.13,12.9-43,57-43,57,15,0,32.56-4.8,65.57,5.37a124,124,0,0,1,54,34.51.85.85,0,0,0,1.41-.21c6.15-13.58,10.1-60.25-19.93-82.67C118.59,147.2,97.55,136.41,81.75,149.05Z" transform="translate(-0.4 -62.21)"/><path class="cls-3" d="M196.76,167.32c-20.48-2.39-23.76-34.91-63.42-66.64-10.75-8.6-14-10.75-22.57-10.75-3.22,0-57,74.17-57,74.17,8.6,1.07,51.43,9.71,79.54,37.62,18.2,18.07,21.58,34.21,24.73,43,.16.47,1.46-.5,1.78-.89,3.66-4.35,21.37-23.46,54.11-28.14,67.72-9.67,72.42.77,75.65-.3,3.67-1.23,24.31-85.69,24.31-85.69-4.29-1.07-79.55,17.32-84.91,20.43C208.71,161.87,206.32,168.44,196.76,167.32Z" transform="translate(-0.4 -62.21)"/><path class="cls-3" d="M202.67,152.81s8.07-10.25,26.88-22.57c31.17-20.42,75.24-29.53,75.24-24.72,0,3.22-9.33,11.57-17.2,44.07-4.25,17.56-9.67,37.62-11.82,38.69-6.8,3.4-50.45,9.27-81.16,25.26-28.65,14.92-32.44,29-35.47,32.25-1.24,1.32.68-6.37-3.22-25.8-1.44-7.14-11.29-33.86-37.09-60.73-13.15-13.7-27.41-21-30.63-22,0,0,40.88-70.08,44.61-69.33,13.43,2.68,40.25,27.86,46.75,37.08C198.53,131.86,202.67,152.81,202.67,152.81Z" transform="translate(-0.4 -62.21)"/><path class="cls-4" d="M202.76,151.94c-5.19,12.93-13.55,32.12-21.3,46.79-6.7,12.67-15.59,36.34-22.31,46.66" transform="translate(-0.4 -62.21)"/><path class="cls-5" d="M194.91,143.77c-8.65-1-46.14,32.68-51.91,44.22-.43.86,17.78,22.59,16.34,55.76-.42,9.79-1.92-22.11,64.41-43.26,5.8-1.85-.48-53.36-10.57-53.84-4-.19-10.86,8.37-11.54,7.69C200.68,153.38,201,144.44,194.91,143.77Z" transform="translate(-0.4 -62.21)"/><path class="cls-3" d="M202.71,151.55c-5.19,12.93-14.05,31.15-21.3,46.79-6,13-15.82,36.27-22.55,47.81" transform="translate(-0.4 -62.21)"/><path class="cls-5" d="M178.57,224.52c-8.3,6.39-11.71,11.33-11.54,11.54a37.39,37.39,0,0,1,5.77-4.81c8.8-6.27,11.54-9.61,34.61-15.38,3.85-1,16.09-2.11,16.34-2.89,1-2.88,3-11.25,1-10.57C216.06,205.29,193.9,212.71,178.57,224.52Z" transform="translate(-0.4 -62.21)"/><path class="cls-5" d="M145.88,198.56c12.5,21.15,11.71,42.1,11.54,42.3,0,0-2.82-8.9-4.81-13.46-4.46-10.22-10.57-19.22-23.07-30.76-2.91-2.69-15.12-10.76-15.38-11.54-1-2.88,3.28-24.59,4.8-23.07C126.66,169.72,136,181.9,145.88,198.56Z" transform="translate(-0.4 -62.21)"/><path class="cls-5" d="M140.11,211.06c10.58,11.54,16.35,30.76,16.35,31.73A119.26,119.26,0,0,0,144,231.25c-9.61-7.69-11.48-8.77-27.88-16.34C103.58,209.14,93,208,93,207.22c0-5.77,14.48-23.2,16.34-22.12C120.89,191.83,126.3,196,140.11,211.06Z" transform="translate(-0.4 -62.21)"/><path class="cls-6" d="M207.41,159.15c1.92-2.89,3.85-7.69,21.15-19.23a114,114,0,0,1,17.3-9.61A210.56,210.56,0,0,1,268,121.65c6-2,13.28-4,14.42-3.84.51,0,1.16.49,1,1-.64,1.51-3.11,6.45-3.37,7.21-1.44,4.33-1.92,4.81-3.84,10.58-.58,1.72-2.57,9.29-3.85,10.57-1,1-2.88,1-7.69,1.92s-9,1.45-29.23,8.18c-21.33,7.11-33.26,16.82-34.22,15.86C201.16,173.09,206.22,160.94,207.41,159.15Z" transform="translate(-0.4 -62.21)"/><path class="cls-7" d="M193.86,159.75l-24.78,49c1,.84.47,3.33,2.18,4.75a10.92,10.92,0,0,0,4.33,2.25l23.08-56c-.27-1.13-2,.45-3.85.38C193.45,160.14,194.64,158.72,193.86,159.75Z" transform="translate(-0.4 -62.21)"/><path class="cls-2" d="M172.25,209.56c-.4-.87.38-3.59,1-4.95,1.18-2.63,3-5.94,4-6.93,1.52-1.52.88-1.59,0-2-2.19-1-4.95,3-7.92,8.91-2.3,4.61-4.71,10.42-4.94,12.86-.19,1.95.11,6.71,2.74,7.89,1.76.79,5.71-1.66,7.59-5.34,1.27-2.46,4-7.77,2.61-8C174.23,211.54,172.82,210.77,172.25,209.56Z" transform="translate(-0.4 -62.21)"/><path class="cls-2" d="M203.7,145.47c-1.4-.55-4.48,2.69-6.86,6.63s-3.65,6.66-4.43,8.1c-.13.26-1.25,3-1,2.88a1,1,0,0,0,.22-.14,4.26,4.26,0,0,1,2.38-.84,4.08,4.08,0,0,1,1.36.13,4.62,4.62,0,0,1,.84.94,4.18,4.18,0,0,1,.77,2.4,2.13,2.13,0,0,0,0,.25c0,.29,1.56-2.27,1.68-2.54.67-1.49,2.1-4.26,3.74-8.44s3.16-8.38,1.26-9.37" transform="translate(-0.4 -62.21)"/></svg>