<svg id="레이어_1" data-name="레이어 1" xmlns="http://www.w3.org/2000/svg" viewBox="0 0 158.1 241.7"><defs><style>.cls-1{fill:#fff;}.cls-2,.cls-3{fill:#eee;}.cls-2{fill-opacity:0;}</style></defs><rect class="cls-1" width="158.1" height="241.7"/><rect class="cls-2" x="23.18" y="59.19" width="112.91" height="122.84"/><path class="cls-3" d="M150.75,483.21h90c3.58,0,6.38-.79,8.42-2.38a7.86,7.86,0,0,0,3.05-6.54,28.59,28.59,0,0,0-3.92-13.62A48.48,48.48,0,0,0,237,447.22,59.2,59.2,0,0,0,219.22,437a72.28,72.28,0,0,0-47,0,59.73,59.73,0,0,0-17.82,10.2,47.75,47.75,0,0,0-11.27,13.45,28.75,28.75,0,0,0-3.89,13.62,7.84,7.84,0,0,0,3.06,6.54C144.37,482.42,147.18,483.21,150.75,483.21Zm45-62.12a24.12,24.12,0,0,0,13.28-3.92,29.23,29.23,0,0,0,9.83-10.64,30.57,30.57,0,0,0,3.72-15.09,29.38,29.38,0,0,0-3.72-14.79,28.21,28.21,0,0,0-9.83-10.3,24.81,24.81,0,0,0-13.28-3.76,24.53,24.53,0,0,0-13.28,3.83,28.63,28.63,0,0,0-9.83,10.39,29.48,29.48,0,0,0-3.72,14.76,30.28,30.28,0,0,0,3.72,15,29.35,29.35,0,0,0,9.83,10.6A24.12,24.12,0,0,0,195.77,421.09Z" transform="translate(-116.1 -301.19)"/></svg>