<svg id="레이어_2" data-name="레이어 2" xmlns="http://www.w3.org/2000/svg" viewBox="0 0 207.75 297.93"><defs><style>.cls-1{fill:#ede6d6;}.cls-2{fill:#a4a4a4;}.cls-3{fill:#fff;}.cls-4,.cls-5{fill:#eee;}.cls-4{fill-opacity:0;}</style></defs><rect class="cls-1" x="3.5" y="3.5" width="200.75" height="290.93" rx="10.46"/><path class="cls-2" d="M264.77,33.11a7,7,0,0,1,7,7v270a7,7,0,0,1-7,7H84.94a7,7,0,0,1-7-7v-270a7,7,0,0,1,7-7H264.77m0-7H84.94a14,14,0,0,0-14,14v270a14,14,0,0,0,14,14H264.77a14,14,0,0,0,14-14v-270a14,14,0,0,0-14-14Z" transform="translate(-70.98 -26.11)"/><rect class="cls-3" x="24.66" y="28.04" width="158.1" height="241.7"/><rect class="cls-4" x="47.84" y="87.23" width="112.91" height="122.84"/><path class="cls-5" d="M130.3,236.18h90c3.58,0,6.39-.8,8.42-2.38a7.86,7.86,0,0,0,3-6.54,28.53,28.53,0,0,0-3.92-13.62,48.46,48.46,0,0,0-11.27-13.45A59.17,59.17,0,0,0,198.76,190a66.32,66.32,0,0,0-23.51-3.93A66.1,66.1,0,0,0,151.8,190,59.46,59.46,0,0,0,134,200.19a47.45,47.45,0,0,0-11.27,13.45,28.58,28.58,0,0,0-3.89,13.62,7.83,7.83,0,0,0,3,6.54C123.91,235.38,126.72,236.18,130.3,236.18Zm45-62.12a24.08,24.08,0,0,0,13.29-3.93,29.18,29.18,0,0,0,9.82-10.63,30.51,30.51,0,0,0,3.73-15.1,29.28,29.28,0,0,0-3.73-14.79,28.26,28.26,0,0,0-9.82-10.3,24.92,24.92,0,0,0-13.29-3.75A24.54,24.54,0,0,0,162,119.38a28.74,28.74,0,0,0-9.83,10.4,29.43,29.43,0,0,0-3.72,14.76,30.27,30.27,0,0,0,3.72,15,29.27,29.27,0,0,0,9.83,10.6A24.07,24.07,0,0,0,175.31,174.06Z" transform="translate(-70.98 -26.11)"/></svg>