<svg id="레이어_2" data-name="레이어 2" xmlns="http://www.w3.org/2000/svg" viewBox="0 0 24.03 20.32"><defs><style>.cls-1,.cls-2{fill:#8c8c8c;}.cls-1{fill-opacity:0;}</style></defs><rect class="cls-1" y="0.96" width="11.49" height="19.36"/><path class="cls-2" d="M12.66,5.16l-1.16-3a.71.71,0,0,0-.27-.59c-.17-.14-.26-.26-.5-.21l-5,1.13c-.62.14-.93.47-.93,1V14a.69.69,0,0,1-.51.83l-.08,0-1.5.31a4,4,0,0,0-2.09,1A2.43,2.43,0,0,0,0,17.87a2.29,2.29,0,0,0,.75,1.77,2.77,2.77,0,0,0,1.93.68,3.57,3.57,0,0,0,1.12-.2A3.87,3.87,0,0,0,5,19.47a3.32,3.32,0,0,0,.87-1.16,4.2,4.2,0,0,0,.34-1.75V7.94a.84.84,0,0,1,.1-.49.78.78,0,0,1,.43-.2l5-1.08a32.28,32.28,0,0,0,2.89-1.93A18.8,18.8,0,0,1,12.66,5.16Z"/><polyline class="cls-1" points="24.03 19.36 12.54 19.36 12.54 0 24.03 0"/><path class="cls-2" d="M11.7,6.16c5.32-1,5.78-1.93,5.68,0V13a.67.67,0,0,1-.48.83l-.1,0-1.5.31a4,4,0,0,0-2.09,1,2.48,2.48,0,0,0-.68,1.77,2.27,2.27,0,0,0,.75,1.76,2.73,2.73,0,0,0,1.93.69,3.38,3.38,0,0,0,3.13-2,4.2,4.2,0,0,0,.34-1.75V1.31L18.59.92c-.13-.54-.47-.84-.91-.79-2.12.22-7.13,1.26-6.94,1.21"/></svg>