<svg id="레이어_1" data-name="레이어 1" xmlns="http://www.w3.org/2000/svg" viewBox="0 0 22.94 36.96"><defs><style>.cls-1,.cls-2{fill:#c8c8d3;}.cls-1{fill-opacity:0;}</style></defs><rect class="cls-1" x="1" width="21.94" height="36.96"/><path class="cls-2" d="M24,8.76c-1.19.27-1.24,1.17-1.24,2.17l0,20a1.3,1.3,0,0,1-1.11,1.62l-2.86.59a7.62,7.62,0,0,0-4,1.93,4.65,4.65,0,0,0-1.3,3.38A4.36,4.36,0,0,0,15,41.82a5.24,5.24,0,0,0,3.68,1.3,6.85,6.85,0,0,0,4.29-1.61,6.36,6.36,0,0,0,1.66-2.23A7.78,7.78,0,0,0,25.25,36V19.49c0-.47.19-8.52.19-8.73,0-2-.43-2-1.43-2" transform="translate(-13.54 -6.16)"/></svg>