<svg id="레이어_1" data-name="레이어 1" xmlns="http://www.w3.org/2000/svg" viewBox="0 0 22.33 37.61"><defs><style>.cls-1,.cls-2{fill:#c8c8d3;}.cls-1{fill-opacity:0;}</style></defs><rect class="cls-1" width="22.33" height="37.61"/><path class="cls-2" d="M36.2,15V8.13a1.38,1.38,0,0,0-1.72-1.41L25.07,8.77c-1.21.26-1.81.91-1.81,1.92l0,20.35a1.33,1.33,0,0,1-1.13,1.65l-2.91.6a7.7,7.7,0,0,0-4.06,2,4.77,4.77,0,0,0-1.32,3.44,4.42,4.42,0,0,0,1.45,3.43,5.33,5.33,0,0,0,3.75,1.33,6.88,6.88,0,0,0,2.17-.39,7,7,0,0,0,2.19-1.26,6.38,6.38,0,0,0,1.7-2.26,8,8,0,0,0,.65-3.39V19.4a1.62,1.62,0,0,1,.2-1,1.4,1.4,0,0,1,.85-.39l8.36-1.83a1.38,1.38,0,0,0,.73-.43A1.15,1.15,0,0,0,36.2,15Z" transform="translate(-13.87 -5.84)"/></svg>