<svg id="레이어_1" data-name="레이어 1" xmlns="http://www.w3.org/2000/svg" viewBox="0 0 239.39 204.78"><defs><style>.cls-1,.cls-3{fill:#fff;}.cls-1{stroke:#a4a4a4;stroke-width:12px;}.cls-1,.cls-2,.cls-3,.cls-4{stroke-miterlimit:10;}.cls-2{fill:#e9e9e7;}.cls-2,.cls-3,.cls-4{stroke:#666;}.cls-4{fill:#c5c5c5;}</style></defs><path class="cls-1" d="M235.68,27.16a12.13,12.13,0,0,0-1.24.72L9.18,102.73a1.3,1.3,0,0,0-.65,2c1.63,2.4,5.32,5.5,10.92,10.23A93.52,93.52,0,0,0,32,123.81c6.31,3.74,14.79,9.77,24.2,13.54-.08,0-.09-.11,0-.22l22.45,70.5a.11.11,0,0,0,.21,0l0-.22a1,1,0,0,0,1.4.44l40.11-20.91L162,219.71a1.09,1.09,0,0,0,1.74-.61c8-33.54,16.84-58.77,34-102.37C219.82,60.42,236.22,27.65,235.68,27.16Zm-5.43,2.78c1.88-1,3.28-1.68,4.15-2-.57.35-1.36.86-2.36,1.54ZM83,157.73l0-.46.7-.6a1,1,0,0,0-.28.7A.4.4,0,0,0,83,157.73Z" transform="translate(-2.3 -21.16)"/><path class="cls-2" d="M55.94,135.65l22.64,71.13a.11.11,0,0,0,.21,0l4.14-49.58L231.52,30.78c.08-.07-16,4.2-18.72,6.24Z" transform="translate(-2.3 -21.16)"/><path class="cls-3" d="M232.78,29.47c-8,1.78-180.54,106.61-176.27,108.07-9.28-3.71-17.63-9.65-23.84-13.34a90.75,90.75,0,0,1-12.38-8.76c-5.52-4.66-9.16-7.71-10.76-10.08a1.26,1.26,0,0,1,.64-1.92Z" transform="translate(-2.3 -21.16)"/><path class="cls-4" d="M82.89,157.62,78.7,206a1,1,0,0,0,1.49,1l66.53-34.69a.4.4,0,0,0-.1-.74L83.37,157.27A.39.39,0,0,0,82.89,157.62Z" transform="translate(-2.3 -21.16)"/><path class="cls-3" d="M233.3,29c-.13-.11-32.28,18.59-149.65,127.54a1,1,0,0,0,.06,1.48l77,60.67a1.07,1.07,0,0,0,1.71-.6c7.92-33,16.6-57.9,33.48-100.85C217.67,61.75,233.83,29.47,233.3,29Z" transform="translate(-2.3 -21.16)"/></svg>