<svg id="레이어_1" data-name="레이어 1" xmlns="http://www.w3.org/2000/svg" viewBox="0 0 33.02 35.74"><defs><style>.cls-1{fill:#cfcfdd;}</style></defs><path class="cls-1" d="M30.91,15.7l-2.05-5.31a1.25,1.25,0,0,0-.48-1c-.3-.25-.46-.46-.88-.37l-8.85,2Q17,11.34,17,12.75V31.27a1.22,1.22,0,0,1-.89,1.48l-.15,0-2.65.54a7.15,7.15,0,0,0-3.7,1.77,4.31,4.31,0,0,0-1.06,3.1,4,4,0,0,0,1.32,3.13,4.93,4.93,0,0,0,3.42,1.2,6.26,6.26,0,0,0,4-1.5A6,6,0,0,0,18.81,39a7.48,7.48,0,0,0,.6-3.1V20.62a1.48,1.48,0,0,1,.18-.87,1.25,1.25,0,0,1,.76-.35l8.84-1.91a55.61,55.61,0,0,0,5.12-3.42A31.17,31.17,0,0,1,30.91,15.7Z" transform="translate(-8.54 -6.79)"/><path class="cls-1" d="M29.21,17.47c9.42-1.77,10.23-3.41,10,0v12A1.2,1.2,0,0,1,38.41,31l-.17,0-2.66.54a7.15,7.15,0,0,0-3.7,1.77,4.4,4.4,0,0,0-1.2,3.14A4,4,0,0,0,32,39.57a4.8,4.8,0,0,0,3.41,1.22,5.75,5.75,0,0,0,2-.32,6.29,6.29,0,0,0,2-1.13A6.19,6.19,0,0,0,41,37.29a7.52,7.52,0,0,0,.6-3.1V8.89L41.4,8.2c-.23-1-.83-1.49-1.61-1.4C36,7.19,27.18,9,27.51,8.94" transform="translate(-8.54 -6.79)"/></svg>