<svg id="레이어_4" data-name="레이어 4" xmlns="http://www.w3.org/2000/svg" viewBox="0 0 295.02 126.2"><defs><style>.cls-1{fill:#f6f8f3;}.cls-2{fill:#a4a4a4;}.cls-3{fill:#d7d7d7;}</style></defs><path class="cls-1" d="M8.14,3H286.88A5.14,5.14,0,0,1,292,8.14V118.06a5.14,5.14,0,0,1-5.14,5.14H8.13A5.13,5.13,0,0,1,3,118.06V8.14A5.14,5.14,0,0,1,8.14,3Z"/><path class="cls-2" d="M317.26,121.28a2.13,2.13,0,0,1,2.14,2.13V233.34a2.14,2.14,0,0,1-2.14,2.14H38.52a2.14,2.14,0,0,1-2.14-2.14V123.41a2.13,2.13,0,0,1,2.14-2.13H317.26m0-6H38.52a8.15,8.15,0,0,0-8.14,8.13V233.34a8.15,8.15,0,0,0,8.14,8.14H317.26a8.15,8.15,0,0,0,8.14-8.14V123.41a8.15,8.15,0,0,0-8.14-8.13Z" transform="translate(-30.38 -115.28)"/><path class="cls-3" d="M177.45,120.75H97.31c16.66,5,27.92,12.15,30.19,12.75.76.2,4.53,1.6,8.32,2.52,10.41,2.51,26.73,1.8,41.63,1.67,14.91.13,31.23.84,41.63-1.67,3.8-.92,7.56-2.32,8.33-2.52,2.27-.6,13.53-6.72,30.18-12.75Z" transform="translate(-30.38 -115.28)"/></svg>